<svg xmlns="http://www.w3.org/2000/svg" version="1.1" xmlns:xlink="http://www.w3.org/1999/xlink" xmlns:svgjs="http://svgjs.dev/svgjs" width="1000" height="623" viewBox="0 0 1000 623"><g transform="matrix(1,0,0,1,-0.6060606060606233,115.98890442890445)"><svg viewBox="0 0 396 247" data-background-color="#ffffff" preserveAspectRatio="xMidYMid meet" height="623" width="1000" xmlns="http://www.w3.org/2000/svg" xmlns:xlink="http://www.w3.org/1999/xlink"><g id="tight-bounds" transform="matrix(1,0,0,1,0.2400000000000091,-0.09999999999999432)"><svg viewBox="0 0 395.52 247.2" height="247.2" width="395.52"><g><svg></svg></g><g><svg viewBox="0 0 395.52 247.2" height="247.2" width="395.52"><g transform="matrix(1,0,0,1,75.54432,54.42211249913345)"><svg viewBox="0 0 244.43135999999998 138.3557750017331" height="138.3557750017331" width="244.43135999999998"><g><svg viewBox="0 0 244.43135999999998 138.3557750017331" height="138.3557750017331" width="244.43135999999998"><g><svg viewBox="0 0 244.43135999999998 138.3557750017331" height="138.3557750017331" width="244.43135999999998"><g><svg viewBox="0 0 244.43135999999998 138.3557750017331" height="138.3557750017331" width="244.43135999999998"><g id="textblocktransform"><svg viewBox="0 0 244.43135999999998 138.3557750017331" height="138.3557750017331" width="244.43135999999998" id="textblock"><g><svg viewBox="0 0 244.43135999999998 138.3557750017331" height="138.3557750017331" width="244.43135999999998"><g transform="matrix(1,0,0,1,0,0)"><svg width="244.43135999999998" viewBox="1.8300000429153442 -38.599998474121094 70.43000030517578 39.869998931884766" height="138.3557750017331" data-palette-color="#bb84e8"><path d="M10.99 0.49L10.99 0.49Q9.38 0.49 8.13-0.29L8.13-0.29Q6.88 0.49 5.82 0.49 4.76 0.49 4.08 0.31 3.39 0.12 2.88-0.2L2.88-0.2Q1.83-0.83 1.83-1.78L1.83-1.78Q1.83-2.27 2.1-2.64L2.1-2.64Q2.64-2.22 3.47-2.22L3.47-2.22Q5.64-2.22 6.47-4.08L6.47-4.08 6.47-16.02Q6.47-17.14 6.01-17.68L6.01-17.68Q5.27-18.58 3.49-19.46L3.49-19.46Q5.15-20.21 5.64-20.8L5.64-20.8Q6.47-21.75 6.47-22.95L6.47-22.95 6.47-33.25Q5.64-35.13 3.47-35.13L3.47-35.13Q2.64-35.13 2.1-34.72L2.1-34.72Q1.83-35.08 1.83-35.56 1.83-36.04 2.11-36.45 2.39-36.87 2.88-37.16L2.88-37.16Q4-37.84 5.46-37.84 6.91-37.84 8.13-37.04L8.13-37.04Q9.4-37.84 11.04-37.84 12.67-37.84 14.01-36.89L14.01-36.89Q16.6-37.84 20-37.84L20-37.84Q22.51-37.84 24.29-37.35L24.29-37.35 26.46-36.77Q26.86-36.67 27.22-36.67L27.22-36.67Q27.91-36.67 27.91-37.65L27.91-37.65Q27.91-37.89 27.73-38.48L27.73-38.48Q28.42-38.6 29.47-38.6 30.52-38.6 31.25-37.9 31.98-37.21 31.98-35.9 31.98-34.59 31.52-33.98L31.52-33.98Q32.18-33.01 32.18-31.6 32.18-30.2 31.23-29.25L31.23-29.25Q31.52-28.52 31.52-27.82 31.52-27.12 31.29-26.55 31.05-25.98 30.71-25.59L30.71-25.59Q30.03-24.88 29.32-24.88L29.32-24.88Q28.3-24.88 27.47-25.32L27.47-25.32Q27.76-25.9 27.76-27.05L27.76-27.05Q27.76-29.74 26.42-31.76L26.42-31.76Q24.58-34.55 20.92-34.55L20.92-34.55Q19.07-34.55 17.57-33.64 16.06-32.74 15.45-31.05L15.45-31.05 15.45-21.61Q16.31-21.07 17.05-21.07 17.8-21.07 18.18-21.09 18.55-21.12 18.95-21.19L18.95-21.19Q19.95-21.34 20.48-21.58L20.48-21.58Q21.51-22.07 21.51-23.97L21.51-23.97Q21.51-25.05 21-25.63L21-25.63Q21.48-25.98 22.22-25.98L22.22-25.98Q23.85-25.98 24.58-24.66L24.58-24.66Q24.85-24.19 24.85-23.63 24.85-23.07 24.56-22.24L24.56-22.24Q25.56-21.09 25.56-19.52 25.56-17.94 24.56-16.8L24.56-16.8Q24.85-15.97 24.85-15.3 24.85-14.62 24.58-14.01 24.32-13.4 23.93-13.04L23.93-13.04Q23.17-12.35 22.22-12.35L22.22-12.35Q21.53-12.35 21-12.74L21-12.74Q21.51-13.6 21.51-14.75L21.51-14.75Q21.51-17.02 20.26-17.55L20.26-17.55Q19.17-17.99 17.75-17.99 16.33-17.99 15.45-17.48L15.45-17.48 15.45-5.27Q16.87-2.78 20.92-2.78L20.92-2.78Q25.51-2.78 27.17-5.62L27.17-5.62Q29.1-8.86 29.1-12.57L29.1-12.57Q29.1-13.65 28.91-14.23L28.91-14.23Q29.52-14.84 30.18-14.84 30.83-14.84 31.18-14.66 31.52-14.48 31.79-14.21L31.79-14.21Q32.37-13.55 32.37-12.87L32.37-12.87 32.23-11.67Q32.23-11.21 32.47-10.91L32.47-10.91Q32.96-10.4 32.96-9.95 32.96-9.5 32.67-8.86L32.67-8.86Q33.23-8.54 33.68-7.92 34.13-7.3 34.13-6.64L34.13-6.64Q34.13-5.25 32.96-4.15L32.96-4.15Q33.47-3.42 33.47-2.04 33.47-0.66 32.68 0.31 31.88 1.27 30.62 1.27L30.62 1.27Q29.93 1.27 29.2 1.12L29.2 1.12Q29.3 0.59 29.3 0.05L29.3 0.05Q29.3-1.07 28.27-1.07L28.27-1.07Q27.12-1.07 25.98-0.61L25.98-0.61Q23.27 0.49 19.81 0.49 16.36 0.49 13.94-0.42L13.94-0.42Q12.67 0.49 10.99 0.49ZM8.81-9.64L8.81-6.47Q10.03-6.93 10.16-9.67L10.16-9.67Q10.3-12.4 10.3-17.24 10.3-22.07 10.29-23.67 10.28-25.27 10.25-26.25L10.25-26.25Q10.18-29.13 9.7-29.72 9.23-30.32 8.81-30.52L8.81-30.52Q8.81-22.02 8.52-20.85L8.52-20.85Q8.18-19.87 6.86-19.46L6.86-19.46Q8.33-18.95 8.52-18.21L8.52-18.21Q8.81-17.04 8.81-9.64L8.81-9.64ZM14.99-6.59L14.97-6.71Q14.97-6.64 14.99-6.59L14.99-6.59ZM46.16 0.49L46.16 0.49Q44.55 0.49 43.31-0.29L43.31-0.29Q42.06 0.49 41 0.49 39.94 0.49 39.26 0.31 38.57 0.12 38.06-0.2L38.06-0.2Q37.01-0.83 37.01-1.78L37.01-1.78Q37.01-2.27 37.28-2.64L37.28-2.64Q37.81-2.22 38.64-2.22L38.64-2.22Q40.82-2.22 41.65-4.08L41.65-4.08 41.65-16.02Q41.65-17.11 41.18-17.7L41.18-17.7Q40.45-18.65 38.67-19.51L38.67-19.51Q40.31-20.26 40.82-20.83L40.82-20.83Q41.65-21.78 41.65-22.95L41.65-22.95 41.65-33.25Q40.82-35.13 38.64-35.13L38.64-35.13Q37.81-35.13 37.28-34.72L37.28-34.72Q37.01-35.08 37.01-35.56 37.01-36.04 37.29-36.45 37.57-36.87 38.06-37.16L38.06-37.16Q39.18-37.84 40.63-37.84 42.09-37.84 43.31-37.04L43.31-37.04Q44.58-37.84 46.14-37.84L46.14-37.84Q47.85-37.84 49.12-36.94L49.12-36.94Q51.83-38.09 54.51-38.09 57.2-38.09 59.41-37.56 61.62-37.04 63.4-36.08L63.4-36.08Q67.28-34.03 68.23-30.76L68.23-30.76Q68.77-28.96 70.55-28.08L70.55-28.08Q68.58-26.71 68.11-24.95L68.11-24.95Q67.09-21.09 63.96-19.92L63.96-19.92Q68.55-18.65 69.94-13.92L69.94-13.92Q70.43-12.23 72.26-11.16L72.26-11.16Q70.38-10.11 69.75-7.98 69.11-5.86 67.51-4.16 65.92-2.47 63.79-1.37L63.79-1.37Q59.69 0.73 54.54 0.73L54.54 0.73Q51.46 0.73 49.05-0.37L49.05-0.37Q47.78 0.49 46.16 0.49ZM50.63-21.09L55.2-21.09Q57.35-21.09 58.25-22.12L58.25-22.12Q59.2-23.17 59.2-25.73L59.2-25.73 59.2-31.37Q59.2-32.86 57.64-33.89L57.64-33.89Q56.27-34.79 55.11-34.79 53.95-34.79 53.21-34.51 52.46-34.23 51.88-33.74L51.88-33.74Q50.63-32.71 50.63-31.27L50.63-31.27 50.63-21.09ZM60.59-34.23L60.59-34.23Q61.42-32.37 61.42-28.81L61.42-28.81Q61.42-23.56 60.74-22L60.74-22Q61.77-22.19 62.47-23.97L62.47-23.97Q62.74-24.63 62.88-25.37 63.01-26.1 63.1-26.5 63.18-26.9 63.35-27.2L63.35-27.2Q63.72-27.81 64.67-28.13L64.67-28.13Q63.69-28.44 63.45-28.81L63.45-28.81Q63.13-29.22 62.94-30.32 62.74-31.42 62.47-32.12 62.2-32.81 61.89-33.25L61.89-33.25Q61.28-34.13 60.59-34.23ZM43.99-9.64L43.99-6.47Q45.21-6.93 45.33-9.67L45.33-9.67Q45.48-12.4 45.48-17.24 45.48-22.07 45.47-23.67 45.46-25.27 45.43-26.25L45.43-26.25Q45.36-29.13 44.88-29.72 44.41-30.32 43.99-30.52L43.99-30.52Q43.99-22.02 43.7-20.85L43.7-20.85Q43.36-19.87 42.04-19.46L42.04-19.46Q43.5-18.95 43.7-18.21L43.7-18.21Q43.99-17.04 43.99-9.64L43.99-9.64ZM50.63-18.02L50.63-6.37Q50.63-4.66 51.93-3.56L51.93-3.56Q53.17-2.54 54.9-2.54L54.9-2.54Q56.59-2.54 57.74-3.27L57.74-3.27Q59.93-4.71 59.93-6.57L59.93-6.57 59.93-13.72Q59.93-15.94 58.49-17.07L58.49-17.07Q57.27-18.02 55.3-18.02L55.3-18.02 50.63-18.02ZM61.57-17.26L61.57-17.26Q62.16-15.94 62.16-11.16L62.16-11.16Q62.16-5.1 61.72-4.05L61.72-4.05Q62.23-4.15 62.77-5.3 63.3-6.45 63.52-7.67 63.74-8.89 63.83-9.33 63.91-9.77 64.08-10.11L64.08-10.11Q64.48-10.84 65.4-11.16L65.4-11.16Q63.94-11.62 63.68-13.01 63.43-14.4 63.18-15.16 62.94-15.92 62.67-16.36L62.67-16.36Q62.2-17.14 61.57-17.26Z" opacity="1" transform="matrix(1,0,0,1,0,0)" fill="#bb84e8" class="wordmark-text-0" data-fill-palette-color="primary" id="text-0"></path></svg></g></svg></g></svg></g></svg></g><g></g></svg></g></svg></g></svg></g><g><path d="M130.194 21.76A122.216 122.216 0 0 1 265.326 21.76L252.849 21.76A109.739 109.739 0 0 0 142.671 21.76L130.194 21.76M130.194 225.44A122.216 122.216 0 0 0 265.326 225.44L252.849 225.44A109.739 109.739 0 0 1 142.671 225.44L130.194 225.44" fill="#bb84e8" stroke="transparent" data-fill-palette-color="tertiary"></path></g></svg></g><defs></defs></svg><rect width="395.52" height="247.2" fill="none" stroke="none" visibility="hidden"></rect></g></svg></g></svg>